<?xml version="1.0" standalone="no"?><!DOCTYPE svg PUBLIC "-//W3C//DTD SVG 1.1//EN" "http://www.w3.org/Graphics/SVG/1.1/DTD/svg11.dtd"><svg t="1558002755758" class="icon" style="" viewBox="0 0 1024 1024" version="1.1" xmlns="http://www.w3.org/2000/svg" p-id="2762" xmlns:xlink="http://www.w3.org/1999/xlink" width="64" height="64"><defs><style type="text/css"></style></defs><path d="M257.987 481.174c0 0 0 0 0 0 0 28.218 22.876 51.094 51.094 51.094 28.218 0 51.094-22.876 51.094-51.094 0 0 0 0 0 0 0 0 0 0 0 0 0-28.218-22.876-51.094-51.094-51.094-28.218 0-51.094 22.876-51.094 51.094s0 0 0 0z" fill="" p-id="2763"></path><path d="M459.935 481.174c0 0 0 0 0 0 0 28.218 22.876 51.094 51.094 51.094 28.218 0 51.094-22.876 51.094-51.094 0 0 0 0 0 0 0 0 0 0 0 0 0-28.218-22.876-51.094-51.094-51.094-28.218 0-51.094 22.876-51.094 51.094s0 0 0 0z" fill="" p-id="2764"></path><path d="M661.883 481.174c0 28.218 22.876 51.094 51.094 51.094s51.094-22.876 51.094-51.094c0-28.218-22.876-51.094-51.094-51.094-28.218 0-51.094 22.876-51.094 51.094z" fill="" p-id="2765"></path><path d="M891.502 337.966c-20.995-43.449-50.851-82.527-88.959-115.902-77.551-68.084-180.346-105.465-289.451-105.465-109.227 0-212.021 37.501-289.451 105.465-38.108 33.375-67.963 72.332-88.959 115.902-21.845 45.39-32.89 93.571-32.89 143.209 0 58.254 15.899 116.144 45.875 167.602 26.214 44.905 63.351 85.075 107.892 116.873v120.756c0 10.437 5.583 20.025 14.563 25.244 4.491 2.548 9.588 3.884 14.563 3.884s10.073-1.334 14.563-3.884l127.795-73.789c28.157 5.34 57.162 8.010 86.047 8.010 109.227 0 212.021-37.501 289.451-105.465 38.108-33.375 67.963-72.332 88.959-115.902 21.845-45.39 32.89-93.571 32.89-143.209 0.122-49.759-11.044-97.94-32.89-143.329zM513.092 787.615c-28.641 0-57.283-3.035-84.955-8.98-7.039-1.456-14.442-0.364-20.631 3.277l-93.693 54.128v-85.682c0-9.83-4.976-18.932-13.107-24.394-89.444-58.619-140.781-147.82-140.781-244.789 0-168.938 158.379-306.32 353.166-306.32 194.666 0 353.166 137.383 353.166 306.32s-158.5 306.442-353.166 306.442z" fill="" p-id="2766"></path></svg>