<svg xmlns="http://www.w3.org/2000/svg" viewBox="0 0 35 35"><g fill-rule="evenodd" fill="none"><path fill="#6D93F5" d="M32.439 2.518C31.819.772 30.935 0 29.432 0H5.425a3.055 3.055 0 0 0-2.951 2.414L0 9.454v.233a4.973 4.973 0 0 0 3.182 4.273v18.224C3.182 33.74 4.428 35 5.966 35h23.068c1.538 0 2.784-1.26 2.784-2.816V13.92A4.981 4.981 0 0 0 35 9.663v-.209l-2.561-6.936Zm-3.007 29.666a.4.4 0 0 1-.398.402H5.966a.4.4 0 0 1-.398-.402V14.483h.334a6.257 6.257 0 0 0 5.036-2.414c.46-.636 1.065-.652 1.479-.056a6.225 6.225 0 0 0 5.075 2.413 6.08 6.08 0 0 0 5.258-2.72c.199-.329.382-.377.54-.377.16 0 .343.048.542.37a6.065 6.065 0 0 0 5.258 2.72h.334l.008 17.765Zm-.334-20.115a3.692 3.692 0 0 1-3.222-1.56A2.946 2.946 0 0 0 23.3 8.976c-1.07 0-2.056.586-2.577 1.531a3.7 3.7 0 0 1-3.182 1.561 3.831 3.831 0 0 1-3.134-1.424 3.173 3.173 0 0 0-2.65-1.44 3.315 3.315 0 0 0-2.704 1.464 3.847 3.847 0 0 1-3.11 1.392c-1.83.008-3.349-.998-3.556-2.293l2.387-6.566c.23-.804.517-.804.684-.804h23.975c.27 0 .413 0 .724.917l2.386 6.437c-.151 1.311-1.663 2.317-3.444 2.317Z"/><path fill="#24CEA8" d="M21.821 27H13.18c-.651 0-1.179.448-1.179 1s.528 1 1.179 1h8.642c.651 0 1.179-.448 1.179-1s-.528-1-1.179-1Z"/></g></svg>