<svg t="1656986216444" class="icon" viewBox="0 0 1024 1024" version="1.1" xmlns="http://www.w3.org/2000/svg" p-id="2584" width="48" height="48"><path d="M302.448 156c-65.392 0-129.536 68.736-129.536 168.816 0 100.096 64.16 168.832 129.536 168.832s129.536-68.736 129.536-168.832c0-100.08-64.16-168.816-129.536-168.816zM108.912 324.816c0-121.728 80.496-232.816 193.536-232.816s193.536 111.088 193.536 232.816c0 121.728-80.496 232.832-193.536 232.832S108.912 446.544 108.912 324.8z"  p-id="2585"></path><path d="M365.024 491.584a32 32 0 0 1 34.736 29.024l24.096 268.752c7.68 69.68-46.88 130.64-117.04 130.64s-124.72-60.96-117.056-130.64l24.096-268.752a32 32 0 0 1 63.744 5.712l-24.128 269.12a53.76 53.76 0 1 0 106.672 0l-24.128-269.12a32 32 0 0 1 29.008-34.72zM786.96 491.584a32 32 0 0 1 34.72 29.024l24.096 268.752c7.68 69.68-46.88 130.64-117.04 130.64s-124.72-60.96-117.056-130.64l24.112-268.752a32 32 0 0 1 63.728 5.712l-24.112 269.12a53.76 53.76 0 1 0 106.672 0l-24.144-269.12a32 32 0 0 1 29.024-34.72z"  p-id="2586"></path><path d="M568.752 122.56a32 32 0 0 1 32 32v213.92a125.168 125.168 0 0 0 250.336 0V154.56a32 32 0 0 1 64 0v213.92c0 104.48-84.688 189.168-189.168 189.168S536.752 472.96 536.752 368.48V154.56a32 32 0 0 1 32-32z"  p-id="2587"></path><path d="M673.536 96.368a32 32 0 0 1 32 32V385.92a32 32 0 1 1-64 0V128.368a32 32 0 0 1 32-32z m102.816 0a32 32 0 0 1 32 32V385.92a32 32 0 0 1-64 0V128.368a32 32 0 0 1 32-32z"  p-id="2588"></path></svg>