<svg t="1656986273156" class="icon" viewBox="0 0 1024 1024" version="1.1" xmlns="http://www.w3.org/2000/svg" p-id="2971" width="48" height="48"><path d="M751.873677 960.010751 276.770704 960.010751c-51.948261 0-99.59617-40.079288-108.540904-91.339493L99.59617 453.085167c-4.472367-26.146145 2.236183-52.29229 18.577524-71.55787 16.169326-19.26558 40.939358-30.446498 67.601545-30.446498l657.093902 0c26.662187 0 51.260205 11.180917 67.601545 30.446498s23.049891 45.583739 18.40551 71.729884l-68.461616 415.070049C851.469847 919.931463 803.821939 960.010751 751.873677 960.010751zM185.775239 415.242063c-7.912649 0-14.449185 2.752226-18.577524 7.568621-4.128339 4.988409-5.676466 11.868974-4.300353 19.781623l68.63363 415.586091c3.440282 20.125651 24.598018 38.015118 45.411725 38.015118l475.102973 0c20.641693 0 41.971443-17.889467 45.411725-38.187133l68.461616-415.070049c1.376113-8.084663-0.172014-14.965228-4.300353-19.953637-4.128339-4.988409-10.836889-7.568621-18.577524-7.568621L185.775239 415.242063zM320.462288 607.381824c-35.262893 0-63.989249-28.726356-63.989249-63.989249s28.726356-63.989249 63.989249-63.989249c35.262893 0 63.989249 28.726356 63.989249 63.989249C384.451537 578.655468 355.725181 607.381824 320.462288 607.381824zM320.462288 543.392575C320.462288 543.392575 320.290274 543.392575 320.462288 543.392575l0 31.994625L320.462288 543.392575zM706.289938 607.381824c-35.262893 0-63.989249-28.726356-63.989249-63.989249s28.726356-63.989249 63.989249-63.989249 63.989249 28.726356 63.989249 63.989249C770.279187 578.655468 741.552831 607.381824 706.289938 607.381824zM706.289938 543.392575C706.289938 543.392575 706.289938 543.392575 706.289938 543.392575l0 31.994625L706.289938 543.392575zM738.284562 319.946246c-17.717453 0-31.994625-14.277171-31.994625-31.994625 0-91.511507-102.176382-159.973123-193.687888-159.973123-93.575676 0-190.247606 59.688896-190.247606 159.629095 0 17.717453-14.277171 31.994625-31.994625 31.994625-17.717453 0-31.994625-14.277171-31.994625-31.994625 0-140.019486 129.354611-223.618344 254.408869-223.618344 121.958004 0 257.677138 92.027549 257.677138 223.962372C770.279187 305.669074 756.002016 319.946246 738.284562 319.946246z"  p-id="2972"></path></svg>