<svg t="1656986307114" class="icon" viewBox="0 0 1024 1024" version="1.1" xmlns="http://www.w3.org/2000/svg" p-id="3263" width="48" height="48"><path d="M512 782c-61.98 0-120.3-23.34-171.24-56.34l89.04-89.04A146.49 146.49 0 0 0 512 662c82.71 0 150-67.29 150-150a146.49 146.49 0 0 0-25.38-82.2l95.19-95.19C816.95 405.71 872 494.51 872 512c0 30-161.19 270-360 270m90-270a90 90 0 0 1-90 90c-13.86 0-26.85-3.39-38.52-9.06l119.46-119.46c5.67 11.67 9.06 24.66 9.06 38.52M152 512c0-30 161.19-270 360-270 61.98 0 120.3 23.34 171.24 56.34L292.19 689.39C207.05 618.29 152 529.49 152 512m622.56-220.14l85.62-85.62-42.42-42.42-91.53 91.53C663.38 212.66 590.24 182 512 182 280.67 182 92 447.32 92 512c0 36.93 61.62 139.14 157.44 220.14l-85.62 85.62 42.42 42.42 91.53-91.53C360.62 811.34 433.76 842 512 842c231.33 0 420-265.32 420-330 0-36.93-61.62-139.14-157.44-220.14"  p-id="3264"></path><path d="M512 362c-82.71 0-150 67.29-150 150 0 14.37 2.67 27.99 6.45 41.13l54.93-54.93a89.64 89.64 0 0 1 74.82-74.82l54.93-54.93A147.9 147.9 0 0 0 512 362"  p-id="3265"></path></svg>