<svg t="1656986411714" class="icon" viewBox="0 0 1024 1024" version="1.1" xmlns="http://www.w3.org/2000/svg" p-id="4141" width="48" height="48"><path d="M957.53251862 356.86676059l-371.40038821-242.31642912a134.4100594 134.4100594 0 0 0-147.84155445 0.52838296L70.80022171 358.55758609l35.03179079 52.8382968 36.40558649-24.09426333v403.79026414c0 74.18496871 60.34133495 134.52630365 134.52630366 134.52630365h474.27655208c74.18496871 0 134.52630365-60.34133495 134.52630365-134.52630365V385.66363236l37.30383754 24.35845481 34.6619227-53.15532658z m-135.37171641-12.15280825v446.43076965c0 39.20601622-31.91433127 71.12034749-71.12034748 71.1203475H276.76390265c-39.20601622 0-71.12034749-31.91433127-71.1203475-71.1203475V345.2951736l267.73164989-177.37816236a71.04637388 71.04637388 0 0 1 78.14784096-0.26419149l271.32465407 177.06113259h-0.68689786z"  p-id="4142"></path><path d="M352.42834366 436.96961854c-19.70868471 19.18030173-29.95931429 43.38024168-29.64228451 69.90506667 0.84541274 67.21031353 69.58803689 139.86297163 136.69267383 202.00080867 14.68904651 13.63228057 33.23528869 20.44842087 51.83436916 20.44842086 18.12353581 0 36.19423331-6.4991105 50.77760323-19.49733152 65.62516463-58.65050945 187.73446853-167.86726894 115.61019339-267.57313499-25.99644203-35.98288012-56.85400735-46.02215652-78.09500266-48.08285009-36.3527482-3.54016588-69.05965392 12.68119123-89.3495599 26.15495691-38.78330985-22.98465911-101.92507453-37.77938222-157.82799254 16.64406349z m180.07291549 45.91647992c7.97858282-7.39736155 36.2470716-28.0571356 60.92255622-25.62657395 12.25848486 1.21528082 22.98465911 8.45412749 32.91825891 22.13924636 27.42307604 37.8850588-3.4344893 90.98754709-106.52200635 183.13753672-4.9139616 4.38557864-12.31132315 4.33274034-17.22528476-0.2113532-28.63835687-26.52482499-115.76870829-107.26174251-116.40276785-156.29568193-0.1056766-9.19386364 3.11745951-16.4855486 10.46198277-23.67155697 14.74188481-14.37201673 29.80079939-19.23314003 43.43307996-19.23314003 24.46413142 0 44.38416932 15.58729755 49.82651388 20.28990597l21.45234851 19.07462515 21.13531871-19.60300812z"  p-id="4143"></path></svg>