<svg t="1656986432381" class="icon" viewBox="0 0 1024 1024" version="1.1" xmlns="http://www.w3.org/2000/svg" p-id="4434" width="48" height="48"><path d="M689.78666656 85.33333344H248.88000031c-70.39999969 0-127.99999969 57.6-128.00000062 127.99999969v597.33333375c0 70.39999969 57.6 127.99999969 128.00000062 127.99999968h526.21333313a128.37333375 128.37333375 0 0 0 128.02666687-127.99999968V298.66666625l-213.33333375-213.33333281zM831.99999969 810.66666688a57.06666656 57.06666656 0 0 1-56.90666625 56.88H248.88000031A57.04000031 57.04000031 0 0 1 192.00000031 810.66666688V213.33333312a57.06666656 57.06666656 0 0 1 56.88-56.88h341.35999969V341.33333375a57.06666656 57.06666656 0 0 0 56.88 56.88H831.99999969V810.66666688z m-156.42666656-483.54666657a14.23999969 14.23999969 0 0 1-14.21333344-14.24000062V156.45333313l170.64 170.66666718h-156.42666656z"  p-id="4435"></path><path d="M575.97333312 661.33333344h-241.75999968c-19.89333375 0-35.54666625 15.65333344-35.54666719 35.54666625s15.65333344 35.54666625 35.54666719 35.54666719h241.75999968c19.92 0 35.57333344-15.65333344 35.57333344-35.54666719s-15.65333344-35.54666625-35.57333343-35.54666625zM298.66666625 540.45333313a35.20000031 35.20000031 0 0 0 35.54666719 35.54666718h355.57333312c19.89333375 0 35.54666625-15.65333344 35.54666719-35.54666719s-15.65333344-35.54666625-35.54666719-35.54666625H334.21333344A35.20000031 35.20000031 0 0 0 298.66666625 540.45333313z"  p-id="4436"></path></svg>