<svg t="1656986453704" class="icon" viewBox="0 0 1024 1024" version="1.1" xmlns="http://www.w3.org/2000/svg" p-id="4727" width="48" height="48"><path d="M512 944.51316229c-115.53974233 0-224.09073928-44.97595824-305.81397167-126.69919062S79.48683771 627.53974233 79.48683771 512s44.97595824-224.09073928 126.69919062-305.81397167S396.46025767 79.48683771 512 79.48683771s224.09073928 44.97595824 305.81397167 126.69919062S944.51316229 396.46025767 944.51316229 512s-44.97595824 224.09073928-126.69919062 305.81397167S627.53974233 944.51316229 512 944.51316229z m0-811.03263036c-101.11136475 0-196.13575772 39.33987325-267.60131542 110.91815265-71.5782794 71.4655577-110.91815265 166.48995067-110.91815265 267.60131542s39.33987325 196.13575772 110.91815265 267.60131542c71.4655577 71.4655577 166.60267237 110.91815265 267.60131542 110.91815265s196.13575772-39.33987325 267.60131542-110.91815265c71.4655577-71.4655577 110.91815265-166.60267237 110.91815265-267.60131542s-39.33987325-196.13575772-110.91815265-267.60131542C708.13575772 172.82040518 613.11136475 133.48053193 512 133.48053193z"  p-id="4728"></path><path d="M636.78292172 723.91679569c-6.42513689 0-12.85027378-1.57810379-18.82452386-4.73431138l-107.08561487-56.24812822-107.08561484 56.24812822c-13.75204738 7.21418879-30.09669386 6.08697179-42.60880254-3.0434859-12.51210868-9.13045769-18.71180218-24.34788717-16.11920307-39.56531664L365.4617902 557.31412334l-86.57026548-84.42855318c-11.15944828-10.82128318-15.10470778-26.71504286-10.25767467-41.48158555 4.84703309-14.76654268 17.35914178-25.36238247 32.68929295-27.50409475l119.59772353-17.35914178 53.54280743-108.43827524c6.87602369-13.97749078 20.74079278-22.54433996 36.29638735-22.54433998 15.55559458 0 29.42036366 8.67957089 36.29638734 22.54433998l53.54280743 108.43827524 119.59772353 17.35914178c15.33015118 2.25443399 27.95498156 12.73755208 32.68929295 27.61681646 4.84703309 14.76654268 0.90177359 30.66030235-10.25767469 41.48158553l-86.57026548 84.42855319L676.57368177 676.57368177c2.59259909 15.33015118-3.4943727 30.43485896-16.11920308 39.56531664-6.98874539 5.18519819-15.33015118 7.77779729-23.67155697 7.77779728zM336.15414825 453.38471608l72.0291662 70.22561901c9.58134449 9.35590108 13.86476908 22.65706167 11.61033508 35.84550054l-17.02097668 99.19509585 89.16286457-46.77950542c11.83577848-6.19969349 25.92599096-6.19969349 37.64904775 0l89.16286457 46.77950542-17.02097667-99.19509585c-2.25443399-13.18843888 2.1417123-26.48959946 11.61033509-35.84550054l72.02916619-70.22561901-99.64598265-14.42837758c-13.18843888-1.91626889-24.57333056-10.14495299-30.54758067-22.09345317L510.87278299 326.57280376l-44.52507143 90.29008157c-5.86152839 11.94850019-17.24642007 20.28990597-30.54758065 22.20617488L336.15414825 453.38471608z m162.54469117-151.38524288z"  p-id="4729"></path></svg>