<svg t="1656986504207" class="icon" viewBox="0 0 1024 1024" version="1.1" xmlns="http://www.w3.org/2000/svg" p-id="5020" width="48" height="48"><path d="M667.77174129 245.76609524c-41.76894936-41.76894936-97.17321757-64.72461203-156.20206372-64.7246129s-114.51941432 22.95566268-156.20206456 64.7246129c-41.76894936 41.76894936-64.72461203 97.17321757-64.72461204 156.2020637s22.95566268 114.51941432 64.72461204 156.20206458c41.76894936 41.76894936 97.17321757 64.72461203 156.20206456 64.72461203s114.51941432-22.95566268 156.20206372-64.72461203c41.76894936-41.76894936 64.72461203-97.17321757 64.72461288-156.20206458s-22.95566268-114.51941432-64.72461288-156.2020637zM511.56967757 571.1151461c-93.2897415 0-169.14698629-75.85724566-169.14698714-169.14698715s75.85724566-169.14698629 169.14698714-169.14698629 169.14698629 75.85724566 169.14698628 169.14698628-75.85724566 169.14698629-169.14698628 169.14698716z"  p-id="5021"></path><path d="M947.98616305 772.45183976l-9.40664377-12.08192723-144.89683188-185.37129034c8.80254745-14.3257143 16.5695005-29.25552489 23.21456085-44.87573092 17.25989676-40.90595486 26.06244423-84.31459498 26.06244421-129.01772682s-8.80254745-88.11177195-26.06244421-129.01772681c-16.65580044-39.43886405-40.56075672-74.90795119-71.02447426-105.28536961-30.46371753-30.46371753-65.84650557-54.28237469-105.28536962-71.02447425C599.68144952 78.51769702 556.27280942 69.71514955 511.56967757 69.71514955S423.45790564 78.51769702 382.55194991 95.77759378c-39.43886405 16.65580044-74.90795119 40.56075672-105.28536877 71.02447425-30.46371753 30.46371753-54.28237469 65.84650557-71.02447425 105.28536961-17.25989676 40.90595486-26.06244423 84.31459498-26.06244422 129.01772681s8.80254745 88.11177195 26.06244422 129.01772682c6.64506036 15.62020602 14.3257143 30.63631661 23.21456085 44.87573092L84.64613498 760.36991253l-9.40664378 12.08192723c-8.80254745 11.21893273-6.73135946 27.61583415 4.48757326 36.33208249l0.08629912 0.08629911c3.19308066 2.50268524 6.9902585 4.14237512 11.0463345 4.66017232l5.17796869 0.69039544 110.80853645 15.53390693 41.94154843 103.73197882 1.89858891 4.74647144c1.55339079 3.79717696 4.05607601 7.16285672 7.33545579 9.75184191 11.21893273 8.80254745 27.61583415 6.73135946 36.3320825-4.48757326l9.40664377-12.08192722 158.2732517-202.63118625c16.31060232 2.41638527 32.88010281 3.71087788 49.70850232 3.71087787 16.74209956 0 33.31160004-1.20819263 49.70850232-3.71087787L719.55143159 931.41548775l9.40664378 12.08192721c8.80254745 11.21893273 25.11314975 13.20382075 36.3320825 4.48757326 3.27938063-2.50268524 5.78206501-5.86836497 7.33545577-9.75184191l1.89858894-4.74647144 41.94154843-103.73197882 110.80853644-15.53390693 5.17796868-0.69039543c4.05607601-0.60409631 7.85325299-2.15748712 11.04633366-4.66017232l0.08629997-0.08629912c11.13263362-8.80254745 13.11752166-25.11314975 4.40127329-36.33208249zM283.91164151 872.47294072c-1.20819263 1.55339079-3.71087788 1.20819263-4.40127416-0.60409632l-30.37741756-75.16685021c-1.72598986-4.22867509-4.48757326-7.76695389-7.853253-10.44223737-0.0862991-0.0862991-0.25889817-0.17259907-0.34519814-0.25889815-0.0862991-0.0862991-0.25889817-0.17259907-0.34519813-0.25889819-3.45197968-2.58898433-7.50805487-4.40127331-12.08192724-5.09166956l-80.25851894-11.30523273c-1.98488802-0.25889817-2.93418249-2.58898433-1.63969074-4.14237512L261.30117697 618.32096318c5.09166958 5.86836497 10.44223733 11.56413087 15.96540417 17.0872977 30.46371753 30.46371753 65.84650557 54.28237469 105.28536877 71.02447425 7.93955209 3.36567974 15.87910507 6.38616133 23.9912571 9.06144562L283.91164151 872.47294072zM511.56967757 680.71548904c-74.64905301 0-144.89683187-29.08292581-197.71211576-81.89820885-7.59435481-7.59435481-14.67091243-15.53390693-21.22967281-23.73235804-8.28475025-10.44223733-15.87910507-21.40227189-22.52416542-32.7938037C245.24947284 499.91807279 231.95935213 451.50406219 231.95935213 401.10516445c0-74.64905301 29.08292581-144.89683187 81.89820968-197.71211575C366.6728457 150.57776483 436.92062454 121.494839 511.56967757 121.494839s144.89683187 29.08292581 197.71211575 81.8982097C762.09707634 256.20833257 791.18000216 326.45611143 791.18000216 401.10516445c0 50.39889775-13.29012073 98.81290833-38.14437145 141.185954-6.64506036 11.3915318-14.23941433 22.35156635-22.52416456 32.7938037-6.55876039 8.28475025-13.635318 16.22430322-21.22967282 23.73235804C656.46650945 651.63256322 586.2187306 680.71548904 511.56967757 680.71548904z m363.32082325 88.54327006l-80.25851896 11.30523184c-4.57387238 0.60409631-8.62994838 2.41638527-12.08192809 5.09166958-0.0862991 0.0862991-0.25889817 0.17259907-0.34519727 0.25889817-0.0862991 0.0862991-0.25889817 0.17259907-0.34519815 0.25889905-3.36567974 2.67528431-6.12726314 6.21356311-7.85325299 10.44223733l-30.37741842 75.16684937c-0.77669538 1.81228894-3.19308066 2.15748712-4.40127329 0.60409631L616.59614815 715.49418075c8.11215118-2.67528431 16.05170412-5.69576589 23.99125622-9.06144562 39.43886405-16.65580044 74.90795119-40.56075672 105.28536963-71.02447425 5.52316682-5.52316682 10.87373457-11.21893273 15.96540416-17.0872977l114.69201253 146.79542079c1.29449261 1.55339079 0.34519814 3.88347695-1.63968987 4.14237513z"  p-id="5022"></path></svg>