<svg t="1656986614633" class="icon" viewBox="0 0 1025 1024" version="1.1" xmlns="http://www.w3.org/2000/svg" p-id="5943" width="48" height="48"><path d="M287.77158091 78.01510042a201.97085742 201.97085742 0 0 0-203.3263669 203.32636692 201.97085742 201.97085742 0 0 0 203.3263669 203.32636607h203.3263669V281.34146734a201.97085742 201.97085742 0 0 0-203.3263669-203.32636692zM149.28373354 281.34146734A142.554375 142.554375 0 0 1 287.77158091 142.85361912 142.554375 142.554375 0 0 1 428.29269169 281.34146734v139.61743777H287.77158091A142.554375 142.554375 0 0 1 149.28373354 281.34146734z m587.38728096-203.32636692a201.97085742 201.97085742 0 0 0-203.32636606 203.32636692v203.32636607h203.32636606a201.97085742 201.97085742 0 0 0 203.32636691-203.32636607 201.97085742 201.97085742 0 0 0-203.32636691-203.32636692z m0 343.84747768h-138.93968386V281.34146734a139.61743862 139.61743862 0 0 1 279.00895898 0 142.554375 142.554375 0 0 1-139.61743862 140.52111076zM287.77158091 526.46269753a203.32636691 203.32636691 0 0 0 0 408.68599721 201.97085742 201.97085742 0 0 0 203.3263669-203.32636692v-203.32636607H287.77158091z m0 343.84747851a139.61743862 139.61743862 0 0 1 0-279.00895897h139.61743861v139.6174386A142.554375 142.554375 0 0 1 287.77158091 870.31017604z m449.35127009-343.84747851h-203.32636606v203.3263669a203.32636691 203.32636691 0 1 0 203.32636607-203.3263669z m1e-8 343.84747851a142.554375 142.554375 0 0 1-139.61743863-139.61743862v-139.39152035h139.61743863a139.61743862 139.61743862 0 0 1-1e-8 279.00895897z"  p-id="5944"></path></svg>