<svg t="1656986643805" class="icon" viewBox="0 0 1024 1024" version="1.1" xmlns="http://www.w3.org/2000/svg" p-id="6676" width="48" height="48"><path d="M457.84014893 655.18618775c-7.35397339 0-14.36187744-2.85507203-19.55291748-8.04611207L314.91351318 523.59332275c-10.55511475-10.98770142-10.29556275-28.46420289 0.69213868-39.01931763 10.72814941-10.29556275 27.59902955-10.29556275 38.32717896 0L477.30654907 608.03424072c10.81466675 10.72814941 10.81466675 28.20465088 0.08651733 39.01931763-5.19104004 5.19104004-12.1989441 8.13262939-19.55291747 8.1326294z m0-1e-8c-15.22705079 0-27.59902955-12.37197876-27.59902955-27.59902954 0-7.26745605 2.85507203-14.27536011 8.04611207-19.46640015l231.77993774-231.77993774c10.98770142-10.55511475 28.46420289-10.29556275 39.01931763 0.69213867 10.29556275 10.72814941 10.29556275 27.59902955 0 38.32717896L477.30654907 647.14007568c-5.10452271 5.10452271-12.11242676 8.04611207-19.46640014 8.04611207z m54.07333374 298.05221558c-15.22705079-0.17303467-27.51251221-12.7180481-27.33947754-28.03161621 0.17303467-13.06411744 9.43038941-24.13833619 22.1484375-26.73385621 152.53005982-28.98330689 324.35348511-217.76412964 336.5524292-332.22656249l-0.17303467-310.59722901C662.97274781 231.59732055 503.6078186 125.52706909 496.59991455 120.85513305c-12.37197876-8.82476807-15.22705079-26.12823486-6.40228271-38.50021362C498.67633057 70.50204467 514.94158936 67.30090332 527.31356812 75.08746338c1.73034668 1.12472535 170.00656128 112.90512085 345.80978393 128.3052063 14.27536011 1.29776001 25.17654419 13.15063477 25.1765442 27.5125122v338.28277589C882.29418945 721.89105225 682.87173462 921.14047242 517.19104004 952.71929932c-1.73034668 0.34606934-3.46069336 0.519104-5.27755738 0.519104z m0.17303467-0.25955201c-1.73034668 0-3.5472107-0.17303467-5.27755738-0.519104-165.68069458-31.49230957-365.10314941-230.82824707-381.02233886-380.67626952l-0.08651735-341.05133058c0-14.36187744 10.90118408-26.30126954 25.1765442-27.5125122C327.02593994 187.64651489 494.86956787 75.95263671 496.59991455 74.82791137c13.06411744-7.95959473 30.0215149-3.8067627 37.98110962 9.25735474 7.44049072 12.1989441 4.3258667 28.11813355-7.18093872 36.59683228-7.00790406 4.67193604-166.37283326 110.65567017-346.58843994 134.70748901v313.53881836C192.83755493 680.44924927 364.66098022 869.23007203 517.19104004 898.29989625c14.96749878 3.02810669 24.65744019 17.64953613 21.6293335 32.6170349-2.59552002 12.7180481-13.75625611 21.97540283-26.73385621 22.06192016z"  p-id="6677"></path></svg>