<svg t="1656986668286" class="icon" viewBox="0 0 1024 1024" version="1.1" xmlns="http://www.w3.org/2000/svg" p-id="6968" width="48" height="48"><path d="M512 545.22265625c-16.61132813 0-33.22265625-16.61132813-33.22265625-33.22265625V107.79101562c0-16.61132813 16.61132813-33.22265625 33.22265625-33.22265624 243.6328125 0 437.43164063 193.79882813 437.43164063 437.43164062 0 16.61132813-16.61132813 33.22265625-33.22265626 33.22265625H512z m33.22265625-66.4453125h332.2265625v-5.53710938c-11.07421875-83.05664063-49.83398438-160.57617188-105.20507813-221.48437499-60.90820313-60.90820313-138.42773438-94.13085938-221.48437499-105.20507813h-5.53710938v332.2265625z"  p-id="6969"></path><path d="M512 949.43164063c-60.90820313 0-116.27929688-11.07421875-171.65039063-33.22265626C118.86523437 822.078125 13.66015625 561.83398438 107.79101562 340.34960937 152.08789062 235.14453125 235.14453125 157.625 334.8125 113.328125c5.53710938 0 11.07421875-5.53710938 16.61132813-5.53710938 16.61132813 0 27.68554688 5.53710938 33.22265624 22.14843751 5.53710938 16.61132813 0 38.75976563-16.61132812 44.29687499C179.7734375 257.29296875 91.1796875 473.24023437 174.23632812 661.50195313c60.90820313 132.890625 188.26171875 221.484375 337.76367188 221.48437499 49.83398438 0 99.66796875-11.07421875 149.50195313-33.22265624 88.59375-38.75976563 155.0390625-105.20507813 193.79882812-193.79882813 5.53710938-11.07421875 16.61132813-22.1484375 33.22265625-22.1484375h11.07421875c11.07421875 5.53710938 16.61132813 11.07421875 16.61132813 16.61132813 5.53710938 11.07421875 5.53710938 16.61132813-1e-8 27.68554687-71.98242188 166.11328125-227.02148438 271.31835938-404.20898437 271.31835938z"  p-id="6970"></path></svg>