<svg t="1656986684980" class="icon" viewBox="0 0 1024 1024" version="1.1" xmlns="http://www.w3.org/2000/svg" p-id="7261" width="48" height="48"><path d="M512 62c248.53124971 0 450 201.46875029 450 450S760.53124971 962 512 962 62 760.53124971 62 512 263.46875029 62 512 62z m159.56250029 518.56875001c-48.15 6.67500029-91.87499971 33.71249971-137.75625 79.36874999-6.33750029 6.3-12.56249971 12.78749971-19.27500028 20.04374971l-15.2250003 16.83750058c-6.46875001 7.23750029-17.36250029 19.48124971-20.96249942 23.43749942l-7.01250028 7.5375c-20.06250029 21.18750029-31.87500029 29.43749971-49.46249972 29.43750058-16.55624971 0-27.52499971-7.55624971-44.3625003-24.09375058l-16.4999997-16.7812497c-6.93749971-7.03125001-12.50624971-12.44999971-18.28125-17.6437503-14.24999971-12.825-28.125-22.68749971-43.05000058-29.99999971a159.8625 159.8625 0 0 0-21.52499942-8.6625c-24.11250029-7.72499971-43.74375029-9.65625029-88.50000058-8.84999971l-45.63749971 1.19999971C200.56249971 800.52499971 343.99999971 905.75 512 905.75c175.03125029 0 323.38125001-114.20624971 374.625-272.15624971-68.02499971-46.06875001-139.31250029-63.50625001-215.06249971-53.02500028zM512 118.25C294.5375 118.25 118.25 294.5375 118.25 512c0 28.96875001 3.13125029 57.22499971 9.07499971 84.41250029h1.5562503a1406.06250029 1406.06250029 0 0 0 24.07499998-0.52500058l10.36874972-0.29999971c69.50625029-2.09999971 95.58749971-0.76875029 132.00000029 10.87499971 9.86249971 3.18750029 19.51875001 7.06875029 29.06250029 11.73750029 20.09999971 9.82500029 38.08125001 22.6125 55.96875 38.7 4.05 3.63750029 7.94999971 7.3125 12.07499942 11.3625l11.00625029 11.04374971 12.2625 12.4875 3.97500029 3.86250028 2.11874942 1.9500003 0.97500058-0.86250058c3.05624971-2.8125 6.75-6.56250029 11.25-11.41875l28.18125-31.40624972 5.69999971-6.3c9.28125001-10.19999971 17.62499971-18.97499971 26.23124971-27.5625 53.73749971-53.47500029 107.25000029-86.55000029 169.72500058-95.1937497 83.25-11.53125001 162.48750029 5.58749971 236.73749942 50.83124942A393.75 393.75 0 0 0 905.75 512c0-217.4625-176.2875-393.75-393.75-393.75z m-168.75 196.875a103.12499971 103.12499971 0 1 1 0 206.25000029 103.12499971 103.12499971 0 0 1 0-206.25000029z m0 56.25a46.87499971 46.87499971 0 1 0 0 93.75000029 46.87499971 46.87499971 0 0 0 0-93.75000029z"  p-id="7262"></path></svg>