<svg t="1656986704655" class="icon" viewBox="0 0 1024 1024" version="1.1" xmlns="http://www.w3.org/2000/svg" p-id="7553" width="48" height="48"><path d="M512.9 168.3c25 0 58.8 9.4 78.6 35.7 18.8 25.1 29.2 71 29.2 129.3 0 21.7 7.8 36.7 12.7 44.9 0 0.4 0 0.8-0.1 1.2-0.2 2.3-0.4 3.6-0.6 4.3-0.5 0.7-1.3 1.7-1.9 2.6-5.3 7.1-15.3 20.4-19.7 40.4l-0.5 2.1c-5.9 26.8-7.5 32.7-13.4 40.2-2.2 2.9-4.4 5-8.8 9-5.4 5.1-12.2 11.4-19.6 20.4-4.4 5.4-10 13.8-15.4 31.5-3.3 10.9-5.5 22.7-6.5 34.2-3.2 37.6 6.2 72.5 27.3 100.9 24.6 33.3 68 54.3 100 66.1 20.3 7.5 38 13.2 52.2 17.9 40 13.1 46.5 16.1 53 24.7 5.9 7.9 9.6 22.6 10.1 40.4 0.2 5.9 0 11.5-0.4 16.6-22.8 7.4-64.4 17.2-137.3 24.9-68 7.1-128.2 8.8-136.7 8.8-10.1-0.1-75.6-4.2-145.6-11.6-75.8-8-115.7-15.4-135.8-20.2-0.4-4.5-0.8-9.5-0.8-14.8-0.1-13 1.4-31.1 8.7-45.4 6.9-4.9 25.8-13.6 45-18.1 38.8-9.1 82.9-22.6 142.4-59.3 17.2-10.6 30.5-24.5 39.5-41.4 7-13.1 10.2-25.7 12.6-34.9 0.3-1 0.5-2.1 0.8-3.2 4.4-16.9 6.2-33.9 5.4-50.3-1-18.9-5.5-36.7-13.3-52.8-10.7-22.1-26.7-35.6-37.3-44.6-1.3-1.1-2.8-2.4-4.1-3.5-0.6-2-1.3-4.5-1.8-6.6-3.8-14.3-9.6-35.9-25.9-55.8-4.2-5.1-6.3-8.5-7.4-10.4 2.2-6.1 5.6-15.9 7.3-29.1 1.5-11.6 0.9-20 0.5-25.5-0.1-1.7-0.2-2.6-0.2-3.4 0-51.3 11.5-98.3 30.7-125.6 9-12.8 20.5-22.7 34.1-29.5 13.1-6.7 27.9-10.1 43-10.1m0-64c-49.4 0-98 22-129.4 66.5-28.8 41-42.4 101.8-42.4 162.5 0 8.2 1.3 12.3 0.2 21-1.9 15.3-8.6 21-8.4 37.6 0.2 15.2 6.1 30.5 22.5 50.5 14.9 18.2 12.2 45.1 26.3 61.4 10.9 12.6 27.1 20.7 34.8 36.4 8.4 17.4 9 38.4 3.6 59.1-4.2 16.3-6.6 30-24.5 41.1-55.2 34-94.3 44.6-123.5 51.5-26.7 6.3-70.6 22.9-83.5 44.3-33.7 56.2-14.3 133.3-11.1 140.4 14 31 312.8 51.7 337.7 51.7 19.4 0 253.1-6.9 329.9-52.2 3.5-2.1 24-89.8-14.4-140.9-26.1-34.8-58.5-36.4-134.2-64.3-26.1-9.6-56.8-25.3-70.7-44.1-28.2-38-9.3-85.5-7.2-88.2 9.6-11.8 18.9-17.2 29.3-30.5 15.6-20.1 19.3-38.2 25.8-67.8 3.7-17 20.7-19.9 23.5-56.2 2.6-34.9-12.4-35.3-12.4-50.9 0-63.2-10.9-126.3-42-167.7-31.2-41.3-82.4-61.2-129.9-61.2z"  p-id="7554"></path><path d="M921.6 831.6c-10.3 0-20.3-4.9-26.5-14-6.4-9.5-7.1-21.1-2.8-30.8 3-12.2 7.7-56.2-7.2-79.1-7.2-11-14.5-14.1-41.4-24.2-10-3.8-21.4-8-35-13.8-16.6-7-46.7-22.4-62.2-46.4-11.7-18.1-16.9-40.4-15.1-64.3 0.8-10.1 3.9-30 11-40 4.3-6.1 8.5-10.6 11.9-14.2 3-3.2 5.2-5.6 7.5-9 6.3-9.3 8-17.3 12.2-39.1l0.3-1.6c2.1-11.2 7.1-18.7 10.3-23.7 3-4.5 4.4-6.8 5.1-16.1 0.5-7.7-0.1-9-1.5-11.7-2.4-4.6-6.9-13.2-6.9-25.8 0-49.9-8.2-89.9-23.2-112.9-10.7-16.3-27.1-27.6-46.3-31.6-17.3-3.6-28.4-20.6-24.8-37.9 3.6-17.3 20.6-28.4 37.9-24.8 35.9 7.5 66.8 28.6 86.8 59.2 21.9 33.6 33.2 82.3 33.6 144.7 4.9 9.5 9.8 21.7 8.3 44.8-1.6 23.9-8.7 36.7-15.3 46.8-0.4 0.6-0.9 1.5-1.3 2l-0.1 0.4c-4.5 23.6-8.1 42.3-22 62.9-5.2 7.6-10 12.8-13.9 16.9-1.6 1.7-2.9 3.1-4 4.4-1.9 7.2-4.3 23.7 3.4 35.6 3.4 5.3 15.3 14.5 33.3 22.1 12.4 5.3 23.1 9.3 32.6 12.8 29.9 11.3 53.6 20.1 72.5 49.1 10 15.3 21.7 42.9 20.7 87.2-0.3 14.1-1.8 25.7-3.1 32.9-2.3 13.6-5.1 25.5-16.7 33.4-5.7 4-12 5.8-18.1 5.8zM891.9 788z m11.6-14.9z m0 0z m0.1 0s-0.1 0 0 0c-0.1 0 0 0 0 0zM103.2 836.5c-6.2 0-12.4-1.8-17.9-5.5-11.6-7.8-14.4-19.7-16.7-33.3-1.2-7.2-2.7-18.7-3.1-32.9-0.6-24.5 2.6-59.5 20.7-87.2 18.9-28.9 42.5-37.8 72.5-49.1 9.5-3.6 20.2-7.6 32.6-12.8 18-7.6 29.9-16.8 33.3-22.1 7.7-11.9 5.3-28.4 3.4-35.6-1.2-1.4-2.5-2.8-4-4.4-3.9-4.1-8.7-9.3-13.9-16.9-13.9-20.7-17.5-39.3-22-62.9l-0.1-0.4c-0.4-0.6-0.9-1.4-1.3-2-6.6-10.1-13.7-22.9-15.3-46.8-1.5-23.1 3.4-35.3 8.3-44.8 0.4-62.4 11.7-111.1 33.6-144.7 20-30.7 50.8-51.7 86.8-59.2 17.3-3.6 34.3 7.5 37.9 24.7 3.6 17.3-7.5 34.3-24.7 37.9-19.2 4-35.6 15.2-46.3 31.6-15 22.9-23.2 63-23.2 112.9 0 12.5-4.5 21.1-6.9 25.8-1.4 2.7-2.1 3.9-1.5 11.7 0.6 9.2 2.1 11.5 5.1 16.1 3.3 5 8.2 12.5 10.3 23.7l0.3 1.6c4.2 21.8 5.9 29.8 12.2 39.1 2.3 3.4 4.5 5.8 7.5 9 3.4 3.6 7.6 8.1 11.9 14.2 7.1 10 10.3 29.9 11 40 1.8 23.9-3.4 46.2-15.1 64.3-15.5 24-45.6 39.4-62.2 46.4-13.6 5.8-25 10-35 13.8-26.9 10.1-34.3 13.2-41.4 24.2-15 22.9-10.2 66.9-7.2 79.1 4.3 9.7 3.6 21.4-2.8 30.8-6.5 8.8-16.5 13.7-26.8 13.7z m29.7-43.5z m-11.6-14.9z m-0.1 0c0.1 0 0.1 0 0 0 0.1 0 0.1 0 0 0z m0-0.1s0 0.1 0 0c0 0.1 0 0 0 0z"  p-id="7555"></path></svg>