<svg t="1656986717204" class="icon" viewBox="0 0 1024 1024" version="1.1" xmlns="http://www.w3.org/2000/svg" p-id="7846" width="48" height="48"><path d="M646.01188965 534.7713623C714.6166748 490.58522949 760.0625 413.55019531 760.0625 325.953125c0-137.01577148-111.04672852-248.0625-248.0625-248.0625S263.9375 188.93735352 263.9375 325.953125c0 87.69396973 45.4458252 164.72900391 114.14750977 208.8182373C221.2048584 590.00402832 108.8984375 739.4229248 108.8984375 915.1015625v0.29069824c0 16.95739746 13.95351563 30.71711426 30.91091309 30.71711426h745.15649414c16.66669922 0 30.03881836-13.46901855 30.13571777-30.13571777v-3.10078125c-0.96899414-175.19414062-112.88781738-323.25644531-269.08967285-378.10151368z m-265.60129395-77.228833C345.33300781 422.36804199 325.953125 375.66252441 325.953125 325.953125s19.37988281-96.41491699 54.4574707-131.5894043C415.58508301 159.28613281 462.29060059 139.90625 512 139.90625s96.41491699 19.37988281 131.5894043 54.4574707C678.66699219 229.53820801 698.046875 276.24372559 698.046875 325.953125s-19.37988281 96.41491699-54.4574707 131.5894043C608.41491699 492.62011719 561.70939941 512 512 512s-96.41491699-19.37988281-131.5894043-54.4574707zM172.2706543 884.19064941c3.10078125-35.07758789 11.62792969-69.18618164 25.38764648-101.74438476 17.15119629-40.60085449 41.76364746-77.13193359 73.15905762-108.43044434 31.29851074-31.29851074 67.82958984-55.91096191 108.43044433-73.15905761 42.0543457-17.82949219 86.72497559-26.8411377 132.75219727-26.8411377s90.60095215 8.91474609 132.46149902 26.55043945c40.50395508 17.05429687 76.93813477 41.47294922 108.1397461 72.57766114 31.29851074 31.10471191 55.91096191 67.34509277 73.15905761 107.75214843 14.05041504 32.94580078 22.7713623 67.5388916 25.96904297 103.29477539H172.2706543z"  p-id="7847"></path></svg>