<svg t="1656987805323" class="icon" viewBox="0 0 1024 1024" version="1.1" xmlns="http://www.w3.org/2000/svg" p-id="1530" width="48" height="48"><path d="M914.286 797.55666667q0 68.534-41.692 108.25T761.71 945.52466667H262.29q-69.12 0-110.884-39.716T109.714 797.55666667q0-30.281 1.975-59.172t7.973-62.318 15.14-62.025 24.576-55.735 35.401-46.3 48.86-30.573 63.707-11.41q5.12 0 23.991 12.287t42.57 27.429 61.732 27.429 76.288 12.288 76.288-12.288 61.732-27.429 42.57-27.429 23.99-12.288q34.89 0 63.708 11.41t48.86 30.574 35.4 46.3 24.576 55.735 15.141 62.025 7.973 62.318 1.974 59.172zM731.429 287.23666667q0 90.844-64.293 155.136T512 506.66666667t-155.136-64.293-64.293-155.136 64.293-155.136T512 67.80966667t155.136 64.292 64.293 155.136z" p-id="1531"></path></svg>