<svg xmlns="http://www.w3.org/2000/svg" viewBox="0 0 35 29"><g fill-rule="evenodd" fill="none"><path fill="#6D93F5" d="M23.634 28.949H3.021V2.394A2.398 2.398 0 0 1 5.414 0H21.24a2.399 2.399 0 0 1 2.394 2.394v26.555ZM5.157 26.812h16.341V2.394a.256.256 0 0 0-.258-.258H5.415a.256.256 0 0 0-.258.258v24.418Z"/><path fill="#6D93F5" d="M33.932 28.949H1.065a1.069 1.069 0 0 1 0-2.137h32.867a1.069 1.069 0 0 1 0 2.137Z"/><path fill="#6D93F5" d="M32.028 27.88h-2.136V15.687a.255.255 0 0 0-.092-.2L21.74 8.81l1.363-1.646 8.058 6.68a2.38 2.38 0 0 1 .866 1.842V27.88Z"/><path fill="#24CEA8" d="M16.397 8.346h-6.014a1.07 1.07 0 0 1 0-2.137h6.014a1.07 1.07 0 0 1 0 2.137ZM16.397 14.563h-6.014a1.069 1.069 0 0 1 0-2.136h6.014a1.069 1.069 0 0 1 0 2.136ZM16.397 20.757h-6.014a1.069 1.069 0 0 1 0-2.136h6.014a1.069 1.069 0 0 1 0 2.136ZM26.691 21.774c-.59 0-1.068-.479-1.068-1.068v-2.063a1.069 1.069 0 0 1 2.136 0v2.063c0 .589-.475 1.068-1.068 1.068Z"/></g></svg>