<svg xmlns="http://www.w3.org/2000/svg" viewBox="0 0 33 35"><g fill-rule="evenodd" fill="none"><path fill="#6D93F5" d="M27.414 34.378H5.584a5.575 5.575 0 0 1-5.587-5.586V5.586A5.575 5.575 0 0 1 5.583 0h21.83A5.575 5.575 0 0 1 33 5.586v23.206a5.575 5.575 0 0 1-5.586 5.586Zm-21.83-31.8c-1.633 0-3.009 1.376-3.009 3.008v23.206c0 1.633 1.376 3.008 3.008 3.008h21.83c1.633 0 3.009-1.375 3.009-3.008V5.586c0-1.632-1.376-3.008-3.008-3.008H5.584Z"/><path fill="#24CEA8" d="M7.646 10.314a1.29 1.29 0 1 0 2.578 0 1.29 1.29 0 0 0-2.578 0ZM24.062 11.603H13.49c-.687 0-1.289-.602-1.289-1.29 0-.687.602-1.289 1.29-1.289h10.57c.688 0 1.29.602 1.29 1.29 0 .687-.602 1.289-1.29 1.289ZM7.646 17.189a1.29 1.29 0 1 0 2.578 0 1.29 1.29 0 0 0-2.578 0ZM24.062 18.478H13.49c-.687 0-1.289-.601-1.289-1.289 0-.687.602-1.289 1.29-1.289h10.57c.688 0 1.29.602 1.29 1.289 0 .688-.602 1.29-1.29 1.29ZM7.646 24.065a1.29 1.29 0 1 0 2.578 0 1.29 1.29 0 0 0-2.578 0ZM24.062 25.354H13.49c-.687 0-1.289-.602-1.289-1.29 0-.687.602-1.288 1.29-1.288h10.57c.688 0 1.29.601 1.29 1.289 0 .773-.602 1.289-1.29 1.289Z"/></g></svg>