<svg t="1656986739780" class="icon" viewBox="0 0 1024 1024" version="1.1" xmlns="http://www.w3.org/2000/svg" p-id="8184" width="48" height="48"><path d="M670.98666667 870.61333333h-524.58666667V194.83733333c0-33.55733333 27.37066667-60.91733333 60.91733333-60.91733333h402.74133334c33.54666667 0 60.91733333 27.37066667 60.91733333 60.91733333V870.61333333z m-470.22933334-54.368h415.86133334V194.83733333c0-3.65866667-2.90133333-6.56-6.56-6.56H207.328c-3.65866667 0-6.56 2.90133333-6.56 6.56v621.408z m0 0"  p-id="8185"></path><path d="M933.056 870.61333333H96.62933333c-14.99733333 0-27.17866667-12.192-27.17866666-27.17866666 0-14.99733333 12.18133333-27.18933333 27.17866666-27.18933334h836.416c14.99733333 0 27.17866667 12.192 27.17866667 27.18933334 0.01066667 14.98666667-12.08533333 27.17866667-27.168 27.17866666z m0 0"  p-id="8186"></path><path d="M884.59733333 843.43466667h-54.368V533.09866667c0-1.97333333-0.84266667-3.84-2.34666666-5.06666667l-205.07733334-169.92 34.67733334-41.888 205.07733333 170.016c14.05866667 11.62666667 22.02666667 28.68266667 22.02666667 46.85866667v310.336zM486.816 346.304H333.76c-14.99733333 0-27.18933333-12.192-27.18933333-27.18933333 0-14.99733333 12.192-27.17866667 27.18933333-27.17866667h153.056c14.99733333 0 27.18933333 12.192 27.18933333 27.17866667-0.01066667 14.99733333-12.192 27.18933333-27.18933333 27.18933333z m0 158.208H333.76c-14.99733333 0-27.18933333-12.18133333-27.18933333-27.17866667s12.192-27.17866667 27.18933333-27.17866666h153.056c14.99733333 0 27.18933333 12.18133333 27.18933333 27.17866666-0.01066667 14.99733333-12.192 27.17866667-27.18933333 27.17866667z m0 157.64266667H333.76c-14.99733333 0-27.18933333-12.18133333-27.18933333-27.17866667s12.192-27.17866667 27.18933333-27.17866667h153.056c14.99733333 0 27.18933333 12.18133333 27.18933333 27.17866667-0.01066667 14.99733333-12.192 27.17866667-27.18933333 27.17866667z m0 0"  p-id="8187"></path><path d="M748.77866667 688.032c-14.99733333 0-27.17866667-12.192-27.17866667-27.17866667v-52.49066666c0-14.99733333 12.18133333-27.17866667 27.17866667-27.17866667s27.17866667 12.18133333 27.17866666 27.17866667v52.49066666c0.01066667 14.98666667-12.08533333 27.17866667-27.17866666 27.17866667z m0 0"  p-id="8188"></path></svg>