<svg t="1656986755568" class="icon" viewBox="0 0 1024 1024" version="1.1" xmlns="http://www.w3.org/2000/svg" p-id="8525" width="48" height="48"><path d="M469.82568237 946.90115059H219.76765648C150.57464877 946.90115059 94.28653013 890.61303195 94.28653013 821.42002424V193.70970738C94.28653013 124.51669966 150.57464877 68.22858103 219.76765648 68.22858103h529.4346231C818.38545874 68.22858103 874.67357737 124.51669966 874.67357737 193.70970738v250.17596852c0 17.36705179-14.08431535 31.45136715-31.45136715 31.45136714s-31.45136715-14.08431535-31.45136714-31.45136714V193.70970738c0-34.50804689-28.07034517-62.57839207-62.57839206-62.57839207H219.76765648c-34.50804689 0-62.57839207 28.07034517-62.57839206 62.57839207v627.72014542c0 34.50804689 28.07034517 62.57839207 62.57839206 62.57839205h250.05802589c17.36705179 0 31.45136715 14.08431535 31.45136715 31.45136715s-14.08431535 31.44153859-31.45136715 31.44153859z"  p-id="8526"></path><path d="M671.50757418 890.20023276c-106.21716397 0-192.63962375-86.41263122-192.63962375-192.63962374s86.42245977-192.63962375 192.63962375-192.63962377c106.22699252 0 192.63962375 86.41263122 192.63962375 192.63962377s-86.42245977 192.63962375-192.63962375 192.63962374z m0-322.37651322c-71.5420317 0-129.73688946 58.19485776-129.73688946 129.73688948s58.19485776 129.73688946 129.73688946 129.73688945 129.73688946-58.19485776 129.73688946-129.73688945-58.20468632-129.73688946-129.73688946-129.73688948zM564.12081249 317.90329338H249.61696961c-17.36705179 0-31.45136715-14.08431535-31.45136714-31.45136713s14.08431535-31.45136715 31.45136714-31.45136715h314.50384288c17.36705179 0 31.45136715 14.08431535 31.45136714 31.45136715 0 17.37688035-14.0744868 31.45136715-31.45136714 31.45136713zM413.19356441 444.57367454h-163.54710915c-17.36705179 0-31.45136715-14.08431535-31.45136714-31.45136713s14.08431535-31.45136715 31.45136714-31.45136715h163.54710915c17.36705179 0 31.45136715 14.08431535 31.45136714 31.45136715s-14.08431535 31.45136715-31.45136714 31.45136713z"  p-id="8527"></path><path d="M878.65414102 935.83420077l-88.68302679-88.68302679c-12.23654754-12.23654754-12.23654754-32.08039449 0-44.31694201 12.23654754-12.23654754 32.08039449-12.23654754 44.31694202 0l88.68302679 88.68302679c12.23654754 12.23654754 12.23654754 32.08039449 0 44.31694201-12.23654754 12.23654754-32.08039449 12.23654754-44.31694202 0z"  p-id="8528"></path></svg>