<svg xmlns="http://www.w3.org/2000/svg" viewBox="0 0 38 38"><g fill-rule="evenodd" fill="none"><path fill="#6D93F5" d="M35.592 9.737a18.957 18.957 0 0 0-1.391-2.134l1.476.537a1.357 1.357 0 1 0 .929-2.55l-7.652-2.785a1.357 1.357 0 0 0-1.804 1.49c.047.389.26.754.616.981a16.23 16.23 0 0 1 7.517 13.726c0 8.979-7.305 16.284-16.284 16.284a1.358 1.358 0 1 0 0 2.717 18.933 18.933 0 0 0 13.436-5.565A18.936 18.936 0 0 0 38 19.002c0-3.246-.833-6.45-2.408-9.265Zm-25.361 22.99a16.23 16.23 0 0 1-7.517-13.725c0-8.98 7.305-16.285 16.285-16.285a1.358 1.358 0 1 0 0-2.717A18.939 18.939 0 0 0 5.563 5.565 18.937 18.937 0 0 0-.004 19.002c0 3.245.833 6.448 2.408 9.264.415.742.88 1.455 1.39 2.134l-1.476-.537a1.357 1.357 0 0 0-.928 2.55L9.043 35.2a1.357 1.357 0 0 0 1.804-1.493 1.356 1.356 0 0 0-.616-.979Z"/><path fill="#24CEA8" d="M17.641 28.502a1.357 1.357 0 1 0 2.715 0V24.43h5.428a1.357 1.357 0 0 0 0-2.714h-5.428v-2.714h5.428a1.357 1.357 0 0 0 0-2.715h-3.212l3.446-3.446a1.357 1.357 0 0 0-1.92-1.92l-5.078 5.08-5.037-5.037a1.357 1.357 0 0 0-1.92 1.92l3.404 3.403h-3.254a1.357 1.357 0 1 0 0 2.715h5.428v2.714h-5.428a1.357 1.357 0 1 0 0 2.714h5.428v4.072Z"/></g></svg>