<svg t="1656986322663" class="icon" viewBox="0 0 1024 1024" version="1.1" xmlns="http://www.w3.org/2000/svg" p-id="3556" width="48" height="48"><path d="M512 602a90 90 0 1 1 0-180 90 90 0 0 1 0 180m0-240c-82.71 0-150 67.29-150 150s67.29 150 150 150 150-67.29 150-150-67.29-150-150-150"  p-id="3557"></path><path d="M512 782c-198.81 0-360-240-360-270s161.19-270 360-270 360 240 360 270-161.19 270-360 270m0-600C280.67 182 92 447.32 92 512c0 64.68 188.67 330 420 330s420-265.32 420-330c0-64.68-188.67-330-420-330"  p-id="3558"></path></svg>