<svg xmlns="http://www.w3.org/2000/svg" viewBox="0 0 35 37"><g fill-rule="evenodd" fill="none"><path fill="#6D93F5" d="M11.559 36.46H4.776A4.8 4.8 0 0 1 0 31.642V4.816A4.8 4.8 0 0 1 4.776 0h22a4.8 4.8 0 0 1 4.77 4.816v7.651a1.23 1.23 0 1 1-2.46 0V4.816a2.335 2.335 0 0 0-2.31-2.36h-22a2.344 2.344 0 0 0-2.32 2.36v26.826a2.344 2.344 0 0 0 2.32 2.36h6.783a1.23 1.23 0 1 1 0 2.458Z"/><path fill="#6D93F5" d="M7.275 8.313h13.408a1.23 1.23 0 0 1 0 2.46H7.275a1.23 1.23 0 0 1 0-2.46ZM7.275 15.113H17.66a1.228 1.228 0 0 1 0 2.457H7.275a1.228 1.228 0 0 1 0-2.457ZM7.275 21.911h3.964a1.23 1.23 0 0 1 0 2.459H7.275a1.23 1.23 0 1 1 0-2.459Z"/><path fill="#24CEA8" d="M19.973 36.591c-.16 0-.316-.017-.469-.05l-3.622-.82a2.07 2.07 0 0 1-1.638-1.687l-.638-3.659a2.089 2.089 0 0 1 .623-1.886l12.925-12.287a2.113 2.113 0 0 1 1.5-.572 2.08 2.08 0 0 1 1.466.653l4.284 4.474a2.113 2.113 0 0 1-.059 2.999l-2.596 2.457a1.59 1.59 0 0 1-2.22 0l-1.704-1.7a1.22 1.22 0 0 1 .847-2.08c.322-.002.63.125.858.351l1.098 1.094 1.736-1.638-3.768-3.973-12.509 11.87.566 3.276 3.21.728 7.2-6.804a1.235 1.235 0 0 1 1.742.047 1.227 1.227 0 0 1-.048 1.736l-7.345 6.922a2.08 2.08 0 0 1-1.441.549h.002Z"/></g></svg>