<svg xmlns="http://www.w3.org/2000/svg" viewBox="0 0 37 34"><g fill-rule="evenodd" fill="none"><path fill="#6D93F5" d="M18.891 33.278a3.855 3.855 0 0 1-1.56-.329C8.112 28.892 1.378 21.304.177 13.618-.5 9.294.748 5.478 3.692 2.87 6.026.803 8.513-.157 11.084.02c3.494.238 6.212 2.495 7.747 4.136C21.2 1.358 24.425-.157 27.582.08c3.251.243 6.078 2.264 7.955 5.687 2.483 4.527 1.781 10.39-1.92 16.085a1.278 1.278 0 0 1-2.325-.432 1.28 1.28 0 0 1 .179-.963c3.172-4.879 3.836-9.785 1.822-13.459-1.449-2.638-3.544-4.19-5.9-4.366-2.492-.186-5.097 1.17-6.97 3.63-.367.482-.92.768-1.515.787a1.946 1.946 0 0 1-1.536-.684c-.917-1.069-3.385-3.58-6.463-3.791-1.86-.128-3.718.617-5.523 2.214-2.904 2.573-3.062 6.007-2.682 8.435.877 5.608 6.059 13.16 15.658 17.384.342.15.713.151 1.048.002a28.788 28.788 0 0 0 6.553-4.062 1.28 1.28 0 0 1 1.623 1.978 31.386 31.386 0 0 1-7.135 4.422c-.491.218-1.023.33-1.56.33Z"/><path fill="#24CEA8" d="M23.318 15.734h-3.542V11.99a1.28 1.28 0 0 0-2.56 0v3.746h-3.54a1.28 1.28 0 0 0 0 2.56h3.54v3.746a1.28 1.28 0 0 0 2.56 0v-3.746h3.542a1.281 1.281 0 0 0 0-2.562Z"/></g></svg>