<svg t="1656986382444" class="icon" viewBox="0 0 1024 1024" version="1.1" xmlns="http://www.w3.org/2000/svg" p-id="3849" width="48" height="48"><path d="M854.58996825 130.57320635c49.02603175 0 88.76901587 39.81511111 88.76901588 88.92952381v464.1015873c0 49.11339683-39.74298413 88.92952381-88.76901588 88.92952381l-312.07619047-0.00203175v62.53003175h251.04863492v61.13828571H230.4375873v-61.13828571h251.04863492V772.53079365l-312.07619047 0.00101587c-49.02603175 0-88.76901587-39.81511111-88.76901588-88.92952381V219.50273016c0-49.1144127 39.74298413-88.92952381 88.76901588-88.92952381h685.1799365z m0 61.13930159H169.41003175c-15.32038095 0-27.74044444 12.4424127-27.74044445 27.79022222v464.1015873c0 15.34780952 12.42006349 27.78920635 27.74044445 27.78920635h685.1799365c15.32038095 0 27.74044444-12.44139683 27.74044445-27.79022222V219.50273016c0-15.34780952-12.42006349-27.79022222-27.74044445-27.79022222zM720.05079365 346.94603175l43.15428572 43.23250793L648 505.58984127c-37.91644444 37.98552381-99.38996825 37.98552381-137.30539683 0l-53.5639365-53.65942857c-14.08304762-14.10946032-36.9168254-14.10946032-50.99987302 0l-104.80050794 104.99047619-43.15326984-43.23149206 104.80050794-104.9904762c37.91644444-37.98552381 99.38996825-37.98552381 137.3064127 0l53.56292063 53.65942858c14.08304762 14.10844444 36.9168254 14.10844444 50.99987302 0L720.05079365 346.94603175z" p-id="3850"></path></svg>