<svg t="1656986542915" class="icon" viewBox="0 0 1024 1024" version="1.1" xmlns="http://www.w3.org/2000/svg" p-id="5359" width="48" height="48"><path d="M280.83245149 374.57092467v-77.05584984c0-127.68154297 103.47499825-231.16754851 231.16754851-231.16754851s231.16754851 103.43096598 231.16754851 231.16754851v77.05584984h11.01898612C821.02698008 374.57092467 875.2632905 428.85126631 875.2632905 495.65868783v330.23935499c0 66.895485-54.1482459 121.08776316-121.07675587 121.0877642H269.82447266C202.97301992 946.98580702 148.7367095 892.70546434 148.7367095 825.89804282V495.65868783c0-66.895485 54.1482459-121.08776316 121.07675587-121.08776316H280.83245149z m66.04787101 0h330.239355v-77.05584984c0-91.25614211-73.89655933-165.1196775-165.1196775-165.1196775-91.21210985 0-165.1196775 73.91857597-165.1196775 165.1196775v77.05584984zM214.7845805 495.65868783v330.23935499c0 30.3379884 24.67988814 55.03989215 55.02888487 55.03989319H754.17552734A54.97384429 54.97384429 0 0 0 809.2154195 825.89804282V495.65868783c0-30.3379884-24.67988814-55.03989215-55.02888487-55.03989216H269.82447266A54.97384429 54.97384429 0 0 0 214.7845805 495.65868783z" p-id="5360"></path></svg>