<svg xmlns="http://www.w3.org/2000/svg" viewBox="0 0 33 36"><g fill-rule="evenodd" fill="none"><path fill="#6D93F5" d="M28.882 35.753H4.122a4.127 4.127 0 0 1-4.125-4.125V4.125A4.127 4.127 0 0 1 4.122 0h24.752A4.127 4.127 0 0 1 33 4.125v27.503a4.125 4.125 0 0 1-4.118 4.125ZM4.122 2.743c-.754 0-1.375.62-1.375 1.375V31.62c0 .761.621 1.375 1.375 1.375h24.752c.762 0 1.376-.614 1.376-1.375V4.118c0-.754-.614-1.375-1.376-1.375H4.122Z"/><path fill="#6D93F5" d="M22.043 19.281H6.865a1.373 1.373 0 0 1-1.375-1.375c0-.761.614-1.375 1.375-1.375h15.178c.762 0 1.375.614 1.375 1.375 0 .762-.613 1.375-1.375 1.375ZM26.08 27.48H6.858a1.373 1.373 0 0 1-1.375-1.375c0-.761.613-1.375 1.375-1.375H26.08c.762 0 1.375.614 1.375 1.375 0 .762-.613 1.375-1.375 1.375Z"/><path fill="#24CEA8" d="M5.49 8.99a2.064 2.064 0 1 0 4.127-.001 2.064 2.064 0 0 0-4.127.001ZM14.399 8.99a2.064 2.064 0 0 0 4.125 0 2.064 2.064 0 0 0-4.125 0ZM23.345 8.99a2.063 2.063 0 1 0 4.126-.001 2.063 2.063 0 0 0-4.126.001Z"/></g></svg>