<svg t="1656998491638" class="icon" viewBox="0 0 1024 1024" version="1.1" xmlns="http://www.w3.org/2000/svg" p-id="1739" width="48" height="48"><path d="M325.953125 537.83984374l248.0625 0C591.38 537.83984374 605.0234375 524.19640624 605.0234375 506.83203124 605.0234375 489.46765624 591.38 475.82421874 574.015625 475.82421874l-248.0625 0C308.58875 475.82421874 294.9453125 489.46765624 294.9453125 506.83203124 294.9453125 524.19640624 308.58875 537.83984374 325.953125 537.83984374zM791.0703125 103.73046874L232.9296875 103.73046874C164.7125 103.73046874 108.8984375 159.54453124 108.8984375 227.76171874l0 558.140625c0 68.2171875 55.8140625 124.03125 124.03125 124.03125l558.140625 0c68.2171875 0 124.03125-55.8140625 124.03125-124.03125L915.1015625 227.76171874C915.1015625 159.54453124 859.2875 103.73046874 791.0703125 103.73046874zM853.0859375 785.90234374c0 34.10859375-27.90703125 62.015625-62.015625 62.015625L232.9296875 847.91796874c-34.10859375 0-62.015625-27.90703125-62.015625-62.015625L170.9140625 227.76171874c0-34.10859375 27.90703125-62.015625 62.015625-62.015625l558.140625 0c34.10859375 0 62.015625 27.90703125 62.015625 62.015625L853.0859375 785.90234374zM698.046875 289.77734374l-372.09375 0C308.58875 289.77734374 294.9453125 303.42078124 294.9453125 320.78515624 294.9453125 338.14953124 308.58875 351.79296874 325.953125 351.79296874l372.09375 0C715.41125 351.79296874 729.0546875 338.14953124 729.0546875 320.78515624 729.0546875 303.42078124 715.41125 289.77734374 698.046875 289.77734374zM636.03125 661.87109374l-310.078125 0C308.58875 661.87109374 294.9453125 675.51453124 294.9453125 692.87890624l0 0C294.9453125 710.24328124 308.58875 723.88671874 325.953125 723.88671874l310.078125 0c17.364375 0 31.0078125-13.6434375 31.0078125-31.0078125l0 0C667.0390625 675.51453124 653.395625 661.87109374 636.03125 661.87109374z" p-id="1740"></path></svg>