<svg xmlns="http://www.w3.org/2000/svg" viewBox="0 0 33 34"><g fill-rule="evenodd" fill="none"><path fill="#6D93F5" d="M31.814 4.357c-.62-.62-1.422-.966-2.242-.966h-2.498C26.637 1.422 24.868 0 22.881 0H10.137C8.095 0 6.345 1.44 5.962 3.391H3.409c-.802 0-1.568.328-2.188.93C.437 5.087 0 6.217 0 7.402v22.571c0 2.224 1.532 4.03 3.428 4.03h26.144c1.896 0 3.427-1.806 3.427-4.048V7.42c.019-1.167-.419-2.297-1.185-3.063ZM2.206 7.42c0-1.093.638-1.823 1.222-1.823H6.07c.584 1.787 2.206 2.972 4.066 2.972h12.726c1.878 0 3.5-1.203 4.065-2.972h2.644c.583 0 1.221.748 1.221 1.823v22.735h.019c-.073.985-.657 1.641-1.222 1.641H3.428c-.584 0-1.222-.747-1.222-1.823V7.42Zm22.735-2.753c-.2 1.003-1.02 1.714-1.987 1.714H9.99a2.042 2.042 0 0 1-1.914-1.677v-.766c.164-1.003 1.002-1.714 1.969-1.714h12.962c.949.037 1.733.73 1.915 1.696v.747h.018Z"/><path fill="#24CEA8" d="M15.442 25.215c.219.2.492.31.784.31.292 0 .584-.11.803-.329l.054-.054 7.275-8.697.09-.091c.183-.237.256-.547.22-.839-.037-.31-.201-.583-.438-.766-.492-.364-1.203-.273-1.55.201l-6.545 7.803-4.813-4.703c-.2-.201-.492-.329-.784-.329-.292 0-.584.11-.784.329l-.018.018c-.438.455-.42 1.148.018 1.604l5.688 5.543Z"/></g></svg>