<svg xmlns="http://www.w3.org/2000/svg" viewBox="0 0 35 36"><g fill-rule="evenodd" fill="none"><path fill="#6D93F5" d="M17.029 35.978A17.994 17.994 0 0 1 6.63 32.68a1.314 1.314 0 0 1-.543-.96 1.308 1.308 0 0 1 .38-.997 1.289 1.289 0 0 1 1.649-.127c.96.689 2.01 1.25 3.098 1.703a15.192 15.192 0 0 0 5.815 1.141c1.993 0 3.95-.38 5.815-1.14 1.884-.762 3.605-1.903 5.109-3.389a15.1 15.1 0 0 0 3.388-5.09 15.193 15.193 0 0 0 1.14-5.815c0-1.993-.38-3.95-1.14-5.816-.761-1.884-1.903-3.605-3.388-5.108-1.486-1.486-3.189-2.627-5.09-3.388a15.192 15.192 0 0 0-5.816-1.141 14.727 14.727 0 0 0-5.815 1.087 14.96 14.96 0 0 0-3.098 1.703c-.525.362-1.214.308-1.648-.127a1.245 1.245 0 0 1-.363-1.015c.037-.38.218-.706.526-.924A18.145 18.145 0 0 1 18.677.072a17.94 17.94 0 0 1 11.396 5.525C33.243 8.931 35 13.333 35 17.99c0 4.655-1.757 9.04-4.927 12.39-3 3.167-7.052 5.13-11.396 5.526-.543.036-1.105.073-1.648.073Z"/><path fill="#24CEA8" d="M16.54 24.456c-.344 0-.67-.127-.906-.38a1.29 1.29 0 0 1-.38-.906c0-.344.126-.67.38-.906l2.99-2.99H1.285C.58 19.275 0 18.696 0 17.99c0-.707.58-1.287 1.286-1.287h17.337l-2.989-2.989a1.29 1.29 0 0 1-.38-.906c0-.344.126-.67.38-.906a1.269 1.269 0 0 1 1.812 0l5.18 5.182c.236.235.381.561.381.906 0 .344-.127.67-.38.905l-5.181 5.181c-.254.236-.562.38-.906.38Z"/></g></svg>