<svg t="1656986777066" class="icon" viewBox="0 0 1024 1024" version="1.1" xmlns="http://www.w3.org/2000/svg" p-id="8865" width="48" height="48"><path d="M545.99046875 944.31485938c-21.112875 11.5801875-46.8680625 11.5801875-67.9809375 0L137.06435937 756.841625C115.69751562 745.10885938 102.5 723.26754688 102.5 699.47225V324.52775c0-23.7943125 13.19751562-45.63660937 34.56435938-57.369375L478.00953125 79.68514062c21.112875-11.5801875 46.8680625-11.5801875 67.9809375 0l340.94517188 187.47225C908.30248438 278.89114062 921.5 300.73245312 921.5 324.52775v374.94548437c0 23.7943125-13.19751562 45.63660937-34.56435938 57.36937501L545.99046875 944.31485938zM171.40625 320.046875c-5.90625 2.953125-5.90625 9.84375-5.90625 9.84375v364.21875c0 6.890625 5.90625 9.84375 5.90625 9.84375l334.6875 184.078125s2.953125 1.96875 5.90625 1.96875 5.90625-1.96875 5.90625-1.96875 329.0923125-181.02164063 332.71875-183.09375c6.890625-3.9375 7.875-11.8125 7.875-11.8125V333.828125c0-10.828125-5.90625-13.78125-5.90625-13.78125L515.9375 134.984375s-1.96875-0.984375-3.9375-0.984375-3.9375 0.984375-3.9375 0.984375-333.48164062 183.4756875-336.65625 185.0625z"  p-id="8866"></path><path d="M512 417.5c52.10789063 0 94.5 42.39210937 94.5 94.5s-42.39210937 94.5-94.5 94.5-94.5-42.39210937-94.5-94.5 42.39210937-94.5 94.5-94.5m0-63c-86.98528125 0-157.5 70.51471875-157.5 157.5s70.51471875 157.5 157.5 157.5 157.5-70.51471875 157.5-157.5-70.51471875-157.5-157.5-157.5z"  p-id="8867"></path></svg>