<svg t="1656986796635" class="icon" viewBox="0 0 1024 1024" version="1.1" xmlns="http://www.w3.org/2000/svg" p-id="9158" width="48" height="48"><path d="M790.63945579 939.93516419h-557.27891158a123.83975812 123.83975812 0 0 1-123.83975812-123.83975812V196.89661544a123.83975812 123.83975812 0 0 1 123.83975812-123.83975812h557.27891158a123.83975812 123.83975812 0 0 1 123.83975812 123.83975812v619.19879063a123.83975812 123.83975812 0 0 1-123.83975812 123.83975812z m61.91987906-743.03854875a61.91987906 61.91987906 0 0 0-61.91987906-61.91987906h-557.27891158a61.91987906 61.91987906 0 0 0-61.91987906 61.91987906v619.19879063a61.91987906 61.91987906 0 0 0 61.91987906 61.91987906h557.27891158a61.91987906 61.91987906 0 0 0 61.91987906-61.91987906V196.89661544z m-557.27891157 495.3590325h433.43915344v61.91987906h-433.43915344v-61.91987906z m0-123.83975812h433.43915344v61.91987906h-433.43915344V568.41588982z m0-309.59939531h247.67951626v247.67951625h-247.67951626V258.81649451z m61.91987906 185.75963718h123.83975812V320.73637357h-123.83975812v123.83975812z"  p-id="9159"></path></svg>