<svg t="1656986815785" class="icon" viewBox="0 0 1024 1024" version="1.1" xmlns="http://www.w3.org/2000/svg" p-id="9450" width="48" height="48"><path d="M340.92698413 949.94285714c-52.72380952 0-103.82222222-15.54285714-147.70793651-44.8-43.88571429-29.35873016-77.71428571-70.6031746-97.93015873-119.36507936s-25.3968254-101.89206349-15.13650794-153.6c10.26031746-51.70793651 35.45396825-98.84444444 72.73650794-136.12698413l347.12380952-347.12380952c24.78730159-24.78730159 53.73968254-44.19047619 86.14603175-57.6C618.56507937 77.91746032 652.6984127 71.11111111 687.74603175 71.11111111h0.3047619c71.00952381 0 137.85396825 27.63174603 188.03809524 77.91746032 24.78730159 24.78730159 44.19047619 53.84126984 57.6 86.24761905 13.40952381 32.40634921 20.21587302 66.64126984 20.21587301 101.79047619 0 35.04761905-6.80634921 69.38412698-20.21587301 101.79047619-13.40952381 32.40634921-32.81269841 61.46031746-57.6 86.24761904L528.86349206 872.02539683c-24.78730159 24.78730159-53.73968254 44.19047619-86.14603174 57.6-32.40634921 13.40952381-66.53968254 20.21587302-101.58730159 20.21587301h-0.2031746zM193.72698413 536.88888889c-19.5047619 19.4031746-34.64126984 42.05714286-45.20634921 67.45396825-10.46349206 25.3968254-15.84761905 52.21587302-15.74603175 79.64444445 0 55.56825397 21.63809524 107.78412698 60.95238096 147.0984127 19.3015873 19.4031746 41.95555556 34.53968254 67.25079365 45.1047619 25.2952381 10.46349206 52.01269841 15.84761905 79.33968254 15.84761905h0.60952381c55.56825397 0 107.88571429-21.63809524 147.0984127-60.95238095l153.09206349-153.0920635-294.1968254-294.19682539-153.19365079 153.09206349z m488.33015873 100.26666667l153.09206349-153.0920635c19.5047619-19.4031746 34.64126984-42.05714286 45.20634921-67.45396825 10.46349206-25.3968254 15.84761905-52.21587302 15.74603174-79.64444444 0-55.56825397-21.63809524-107.88571429-60.95238095-147.0984127-19.3015873-19.4031746-41.95555556-34.53968254-67.25079365-45.10476191-25.2952381-10.46349206-52.01269841-15.84761905-79.33968254-15.84761905h-0.50793651c-55.56825397 0-107.78412698 21.63809524-147.0984127 60.95238096L387.75873016 342.95873016l294.2984127 294.1968254z m93.46031746-357.38412699c-7.61904762 0-15.13650794-3.14920635-20.52063492-8.53333333-17.87936508-17.87936508-41.75238095-27.73333333-67.04761905-27.73333334s-49.16825397 9.85396825-67.04761905 27.73333334c-5.38412698 5.28253968-12.5968254 8.12698413-20.11428571 8.12698413-7.72063492 0-15.03492063-3.04761905-20.41904762-8.43174604-11.07301587-11.07301587-11.27619048-29.25714286-0.30476191-40.53333333l1.11746032-1.11746032c28.74920635-28.03809524 66.64126984-43.47936508 106.76825397-43.47936508 40.73650794 0 79.13650794 15.84761905 107.98730159 44.5968254 8.43174603 8.22857143 10.86984127 20.62222222 6.4 31.59365079-4.46984127 10.86984127-14.93333333 17.87936508-26.71746032 17.87936508l-0.1015873-0.1015873z"  p-id="9451"></path></svg>