<?xml version="1.0" standalone="no"?><!DOCTYPE svg PUBLIC "-//W3C//DTD SVG 1.1//EN" "http://www.w3.org/Graphics/SVG/1.1/DTD/svg11.dtd"><svg t="1594705493974" class="icon" viewBox="0 0 1024 1024" version="1.1" xmlns="http://www.w3.org/2000/svg" p-id="1691" width="36" height="36" xmlns:xlink="http://www.w3.org/1999/xlink"><defs><style type="text/css"></style></defs><path d="M512.200568 564.743248a76.81755 76.81755 0 0 1-30.973432-6.508227L108.22384 393.876696c-26.104541-11.508102-42.559305-35.754319-42.926671-63.272046-0.38374-27.439956 15.355733-52.052516 41.041741-64.231907L479.343229 89.632413c20.590967-9.736758 45.159526-9.754155 65.750493 0.017396l372.585787 176.739307c25.668613 12.1886 41.390689 36.792974 41.024346 64.231907-0.38374 27.500331-16.821107 51.729152-42.908252 63.237253L543.226189 558.235021a77.180823 77.180823 0 0 1-31.025621 6.508227zM139.841955 329.591577l370.21274 163.241898c1.291412 0.558725 3.018753 0.566912 4.344958-0.00921l369.758392-163.128311-369.706203-175.464267v-0.00921c-1.326205-0.62831-3.157923-0.636496-4.501524 0L139.841955 329.591577z m748.015342 1.858324h0.174985-0.174985zM512.375553 941.673993c-10.347672 0-20.799722-2.320858-30.53648-6.997368L121.048937 778.624477c-18.11252-7.834432-26.453489-28.870538-18.619056-46.983058 7.834432-18.11252 28.861328-26.488281 46.992267-18.609846L511.502673 869.659843l345.259418-156.366304c17.938558-8.165983 39.139415-0.252757 47.323819 17.746176 8.165983 17.96414 0.227174 39.156812-17.72878 47.323819L541.847795 934.973384c-9.196453 4.449335-19.282159 6.700609-29.472242 6.700609z" fill="#444444" p-id="1692"></path><path d="M871.563192 515.448542l-359.753527 156.326395-359.451652-155.987681v73.577763c0 13.701047 8.165983 26.084075 20.759813 31.479968L474.636021 750.035348c11.805884 5.702885 24.498974 8.54563 37.174667 8.54563s25.367761-2.842745 37.174668-8.54563l301.834396-129.501446a34.248012 34.248012 0 0 0 20.744463-31.473829v-73.611531z" fill="#444444" p-id="1693"></path></svg>