<?xml version="1.0" standalone="no"?><!DOCTYPE svg PUBLIC "-//W3C//DTD SVG 1.1//EN" "http://www.w3.org/Graphics/SVG/1.1/DTD/svg11.dtd"><svg t="1594794398202" class="icon" viewBox="0 0 1025 1024" version="1.1" xmlns="http://www.w3.org/2000/svg" p-id="3441" width="36.03515625" height="36" xmlns:xlink="http://www.w3.org/1999/xlink"><defs><style type="text/css"></style></defs><path d="M201.216 774.144c-21.504 0-38.912-17.408-38.912-38.912 0-21.504 17.408-38.912 38.912-38.912H819.2c10.24 0 20.48 4.096 27.648 11.264 7.168 7.168 11.264 17.408 11.264 27.648s-4.096 20.48-11.264 27.648c-7.168 7.168-17.408 11.264-27.648 11.264H201.216z m0-223.232c-21.504 0-38.912-17.408-38.912-38.912 0-21.504 17.408-38.912 38.912-38.912H819.2c10.24 0 20.48 4.096 27.648 11.264 7.168 7.168 11.264 17.408 11.264 27.648 0 10.24-4.096 20.48-11.264 27.648-7.168 7.168-17.408 11.264-27.648 11.264H201.216z m0-222.72c-21.504 0-38.912-17.408-38.912-38.912 0-21.504 17.408-38.912 38.912-38.912H819.2c21.504 0 38.912 17.408 38.912 38.912 0 21.504-17.408 38.912-38.912 38.912H201.216z" fill="#444444" p-id="3442"></path></svg>