<?xml version="1.0" standalone="no"?><!DOCTYPE svg PUBLIC "-//W3C//DTD SVG 1.1//EN" "http://www.w3.org/Graphics/SVG/1.1/DTD/svg11.dtd"><svg t="1594794606019" class="icon" viewBox="0 0 1024 1024" version="1.1" xmlns="http://www.w3.org/2000/svg" p-id="1691" width="36" height="36" xmlns:xlink="http://www.w3.org/1999/xlink"><defs><style type="text/css"></style></defs><path d="M347.554694 958.708971a34.381042 34.381042 0 0 1-15.352663-3.61534 34.375925 34.375925 0 0 1-19.009959-30.746259V794.951327C161.80006 730.228233 65.290005 597.133959 65.290005 450.154443c0-212.214263 200.384843-384.864438 446.708972-384.864438S958.708971 237.940181 958.708971 450.154443c0 208.857818-194.093557 379.385657-435.048397 384.729362L368.208083 951.804724a34.305317 34.305317 0 0 1-20.653389 6.904247z m164.445306-824.693721c-208.42189 0-377.98475 141.820006-377.98475 316.139193 0 125.050064 88.506776 238.598166 225.469148 289.285593 13.472849 4.983501 22.432918 17.844413 22.432918 32.222889v83.833337l109.429295-82.306565a34.362622 34.362622 0 0 1 20.654412-6.904247c208.42189 0 377.98475-141.820006 377.984751-316.131007C889.98475 275.835256 720.42189 134.01525 512 134.01525z" fill="#444444" p-id="1692"></path><path d="M490.388796 675.170267c-124.697023 0-226.391147-74.748425-272.045952-199.940729l80.704066-29.429263c33.238009 91.174536 102.986559 143.464459 191.341886 143.46446v85.905532z" fill="#d81e06" p-id="1693"></path></svg>