<?xml version="1.0" standalone="no"?><!DOCTYPE svg PUBLIC "-//W3C//DTD SVG 1.1//EN" "http://www.w3.org/Graphics/SVG/1.1/DTD/svg11.dtd"><svg t="1594705619096" class="icon" viewBox="0 0 1024 1024" version="1.1" xmlns="http://www.w3.org/2000/svg" p-id="2066" width="36" height="36" xmlns:xlink="http://www.w3.org/1999/xlink"><defs><style type="text/css"></style></defs><path d="M794.30403339 556.11250349H229.7052626V503.18177511c0-19.48914963 15.79862188-35.2877715 35.2877715-35.28777151h494.02322779c19.48822029 0 35.2877715 15.79862188 35.2877715 35.28777151v52.93072838z" fill="#d81e06" p-id="2067"></path><path d="M846.90289248 917.804727h-669.78905256c-39.11216306 0-70.91949716-31.660457-70.91949715-70.57461368v-193.34835729c0-19.48729097 15.80048053-35.2877715 35.28777241-35.28777149s35.2877715 15.80048053 35.2877715 35.28777149v193.34835729h670.1330058l0.32722084-193.34835729c0-19.48729097 15.80048053-35.2877715 35.2877715-35.28777149s35.2877715 15.80048053 35.28777241 35.28777149v193.34835729c-0.00092932 38.91415758-31.80733411 70.57461368-70.90276475 70.57461368zM882.51788482 405.41438212c-19.48729097 0-35.2877715-15.80048053-35.2877715-35.2877715V176.76988668H177.11383992l-0.34488257 193.35672395c0 19.48729097-15.80048053 35.2877715-35.28777241 35.28777149s-35.2877715-15.80048053-35.2877715-35.28777149V176.76988668c0-38.91415758 31.80733411-70.57461368 70.91949717-70.57461368h669.78905254c39.09542974 0 70.90183452 31.660457 70.90183452 70.57461368v193.35672395c0.00092932 19.48729097-15.79862188 35.2877715-35.28591285 35.28777149z" fill="#444444" p-id="2068"></path></svg>