<?xml version="1.0" standalone="no"?><!DOCTYPE svg PUBLIC "-//W3C//DTD SVG 1.1//EN" "http://www.w3.org/Graphics/SVG/1.1/DTD/svg11.dtd"><svg t="1594705271465" class="icon" viewBox="0 0 1024 1024" version="1.1" xmlns="http://www.w3.org/2000/svg" p-id="1691" width="36" height="36" xmlns:xlink="http://www.w3.org/1999/xlink"><defs><style type="text/css"></style></defs><path d="M700.652638 907.198807H323.357596c-24.699542 0-47.671743-13.205766-59.97086-34.465976L74.462922 546.264385c-12.232602-21.126156-12.232602-47.402613 0.016373-68.554352l188.907441-326.442864c12.300141-21.252023 35.287691-34.465976 59.97086-34.465976H700.651614c24.6494 0 47.621601 13.19758 59.954487 34.440393l188.94121 326.493006c12.216229 21.142529 12.216229 47.38624 0 68.512397l-188.923814 326.485842c-12.332886 21.268396-35.305087 34.465976-59.970859 34.465976zM323.357596 185.531554L133.964084 512.167822 322.887898 838.300624l-29.750581 17.216104 29.750581-17.207917c0 0.008186 0.151449 0.159636 0.469698 0.159635H700.651614l189.393511-326.636268L701.122335 185.699376l-377.764739-0.167822z" fill="#444444" p-id="1692"></path><path d="M511.99693 675.233712c-90.006943 0-163.233712-73.226768-163.233711-163.233712S421.989987 348.766288 511.99693 348.766288s163.233712 73.226768 163.233712 163.233712-73.226768 163.233712-163.233712 163.233712z m0-240.555752c-42.637076 0-77.321016 34.68394-77.321016 77.321017s34.68394 77.321016 77.321016 77.321016 77.321016-34.68394 77.321016-77.321016-34.68394-77.321016-77.321016-77.321017z" fill="#444444" p-id="1693"></path></svg>