<svg t="1695387082366" class="icon" viewBox="0 0 1024 1024" version="1.1" xmlns="http://www.w3.org/2000/svg" p-id="1369" width="22" height="22"><path d="M147.94752 647.85370112V389.94526777C147.94752 189.24733667 310.93797888 26.54814777 512 26.54814777s364.05248 162.69918777 364.05248 363.39712v257.90843335l68.95843555 137.6862811c12.11202333 24.16336555-5.49774222 52.58657223-32.56168334 52.58657223H111.55076779c-27.06394112 0-44.66156999-28.42320555-32.56168334-52.58657223l68.95843555-137.6862811z m705.60426667 117.60071111l-46.4698789-92.76984889a36.28752555 36.28752555 0 0 1-3.84720555-16.25050112V389.94526777c0-160.5632-130.39236779-290.7128411-291.23470222-290.7128411S220.76529778 229.38206777 220.76529778 389.94526777V656.42192555c0 5.64337778-1.32285667 11.2018011-3.84720555 16.26263779l-46.4698789 92.75771221h683.10357334z m-504.38447446 173.30631111a36.28752555 36.28752555 0 0 1-4.72101888-51.17876224 36.44529778 36.44529778 0 0 1 51.26371556-4.7088822A181.31626667 181.31626667 0 0 0 512 924.75543666a181.31626667 181.31626667 0 0 0 116.2657189-41.87022223 36.44529778 36.44529778 0 0 1 51.26371555 4.70888335 36.28752555 36.28752555 0 0 1-4.73315555 51.1787611A254.18259001 254.18259001 0 0 1 512 997.45185223c-60.28098333 0-117.41866667-20.99579221-162.83268779-58.70326556z" p-id="1370"></path></svg>
